<?xml version="1.0" standalone="no"?>
<!DOCTYPE svg PUBLIC "-//W3C//DTD SVG 20010904//EN"
 "http://www.w3.org/TR/2001/REC-SVG-20010904/DTD/svg10.dtd">
<svg version="1.0" xmlns="http://www.w3.org/2000/svg"
 width="512.000000pt" height="512.000000pt" viewBox="0 0 512.000000 512.000000"
 preserveAspectRatio="xMidYMid meet">
<metadata>
Created by potrace 1.14, written by Peter Selinger 2001-2017
</metadata>
<g transform="translate(0.000000,512.000000) scale(0.100000,-0.100000)"
fill="#000000" stroke="none">
<path d="M2303 4767 c-32 -30 -38 -41 -38 -76 0 -61 37 -90 102 -82 21 2 43
54 32 74 -14 24 -26 21 -42 -9 -13 -24 -15 -25 -30 -9 -32 32 -15 75 31 75 36
0 88 -28 100 -54 14 -30 5 -64 -25 -96 -13 -14 -23 -28 -23 -32 0 -22 -136
-42 -260 -38 -244 9 -294 6 -341 -18 -53 -27 -77 -63 -80 -118 -5 -82 62 -130
154 -111 32 6 84 54 83 76 -4 68 -116 86 -116 19 0 -24 26 -34 45 -18 21 17
33 3 14 -15 -40 -41 -100 -12 -104 49 -2 30 2 40 24 54 14 9 32 22 39 29 12
12 60 19 87 13 87 -17 333 -14 400 5 112 31 150 58 178 124 17 41 4 87 -39
132 -38 40 -51 47 -107 54 -42 6 -49 4 -84 -28z"/>
<path d="M2645 4772 c-48 -35 -70 -86 -66 -159 1 -12 16 -37 34 -56 49 -53
112 -66 242 -51 64 8 101 13 130 19 68 15 165 12 204 -6 75 -33 92 -104 32
-129 -22 -9 -34 -9 -51 0 -32 17 -19 35 24 32 31 -2 36 0 36 18 0 23 -42 44
-70 35 -32 -10 -70 -46 -70 -65 0 -27 48 -69 87 -76 75 -14 160 50 150 113 -9
51 -41 88 -99 113 -47 20 -61 22 -161 15 -106 -7 -123 -8 -177 -20 -30 -6 -89
-8 -110 -2 -8 2 -32 7 -53 12 -77 15 -102 96 -47 154 34 35 46 38 78 15 30
-20 28 -44 -2 -44 -28 0 -39 -11 -30 -33 12 -32 69 -22 96 17 17 25 7 68 -22
97 -25 26 -36 30 -75 28 -29 -2 -58 -11 -80 -27z"/>
<path d="M2639 4375 c-2 -2 -17 -5 -34 -8 -48 -8 -65 -18 -65 -37 0 -25 27
-44 60 -42 15 1 33 -5 40 -13 7 -8 10 -15 8 -15 -3 0 -2 -19 3 -42 17 -84 20
-399 5 -455 -20 -75 -7 -97 61 -101 29 -2 62 2 73 8 26 14 40 49 29 70 -21 36
-46 156 -38 178 13 36 62 30 87 -10 32 -53 75 -160 81 -203 5 -33 12 -43 41
-57 52 -25 107 -29 132 -8 25 20 21 29 -61 145 -29 42 -62 99 -72 127 l-18 51
44 41 c127 118 95 300 -62 349 -26 8 -55 15 -63 16 -8 0 -67 2 -131 5 -64 3
-118 3 -120 1z m188 -102 c44 -21 53 -28 77 -65 34 -52 -15 -129 -92 -144 -18
-4 -32 -1 -37 6 -9 14 -17 199 -9 211 8 13 19 11 61 -8z"/>
<path d="M2140 4312 c-14 -2 -59 -16 -100 -32 -41 -15 -83 -30 -93 -34 -9 -3
-22 -17 -29 -31 -10 -23 -8 -29 19 -58 43 -44 75 -117 159 -359 43 -124 88
-222 115 -247 21 -19 50 -20 73 -3 6 5 49 24 96 42 108 41 147 70 176 134 29
63 25 108 -16 191 -23 49 -39 66 -79 90 -53 31 -54 34 -51 102 3 85 -44 169
-109 194 -27 11 -124 18 -161 11z m128 -100 c12 -8 23 -21 23 -28 1 -8 2 -20
3 -26 6 -38 -33 -95 -98 -146 -27 -21 -30 -21 -48 -6 -10 10 -18 24 -18 32 0
8 -11 45 -25 83 -24 68 -25 95 -2 97 24 2 82 14 86 18 7 6 54 -8 79 -24z m120
-315 c48 -45 18 -119 -64 -153 -50 -21 -69 -11 -97 49 -46 99 -46 102 23 123
48 14 111 6 138 -19z"/>
<path d="M3370 4252 c-29 -11 -37 -29 -43 -92 -3 -36 -8 -74 -10 -85 -3 -11
-12 -50 -21 -86 -8 -37 -26 -91 -39 -120 -14 -30 -28 -65 -32 -79 -4 -14 -21
-50 -38 -81 -42 -78 -35 -100 41 -128 81 -29 120 -36 135 -22 10 8 14 39 14
108 1 83 5 111 31 185 37 104 93 195 170 276 33 36 -3 74 -99 106 -62 20 -92
25 -109 18z"/>
<path d="M1776 4151 c-64 -30 -75 -50 -50 -90 14 -21 14 -30 -1 -90 -18 -72
-37 -101 -67 -101 -34 0 -152 52 -186 81 -36 32 -46 30 -124 -18 -21 -13 -38
-20 -38 -17 0 4 -9 -5 -20 -19 -40 -51 16 -95 170 -133 36 -9 70 -20 75 -24 6
-4 28 -11 50 -14 22 -4 50 -14 62 -22 51 -33 123 -177 123 -247 0 -68 106 -62
178 11 32 33 34 28 -44 102 -25 24 -78 126 -94 182 -5 15 -4 44 1 65 12 49 18
72 24 102 2 13 11 45 19 70 32 105 39 137 37 156 -4 25 -1 22 -31 29 -16 3
-47 -6 -84 -23z"/>
<path d="M3759 4108 c-1 -7 -2 -25 -3 -39 -3 -28 -39 -95 -78 -142 -71 -87
-181 -218 -217 -257 -35 -38 -81 -130 -81 -160 0 -24 105 -105 175 -135 22 -9
75 -25 117 -35 72 -16 79 -16 125 -1 26 9 67 29 90 44 85 54 172 196 180 290
2 29 6 63 7 77 1 14 -7 52 -19 85 -19 56 -34 79 -95 144 -14 14 -36 40 -50 56
-51 60 -148 107 -151 73z m139 -207 c53 -85 58 -129 26 -211 -22 -58 -38 -76
-102 -117 -75 -48 -146 -62 -205 -39 -43 16 -67 43 -50 55 18 13 81 98 98 131
30 59 174 230 194 230 5 0 23 -22 39 -49z"/>
<path d="M1158 3768 c-21 -18 -44 -50 -53 -71 -22 -53 -6 -81 77 -131 91 -56
110 -75 102 -100 -15 -46 -87 -147 -101 -142 -26 10 -120 91 -144 124 -13 18
-32 44 -42 57 -29 40 -57 32 -112 -31 -57 -67 -81 -125 -63 -153 7 -11 40 -32
75 -46 147 -63 326 -207 380 -307 15 -27 39 -56 55 -64 25 -13 29 -12 48 8 11
12 20 28 20 35 0 7 3 13 8 13 4 0 15 19 25 43 10 23 30 59 44 79 37 54 27 83
-28 87 -23 1 -72 17 -111 37 -55 28 -68 39 -63 52 12 31 80 132 92 136 21 8
100 -80 132 -147 14 -28 35 -54 52 -62 l29 -15 70 71 c38 40 70 78 70 85 0 14
-56 64 -71 64 -18 0 -113 67 -165 117 -29 26 -76 82 -105 123 -72 102 -97 132
-128 152 -37 25 -51 23 -93 -14z"/>
<path d="M4633 3736 c-78 -20 -123 -44 -123 -65 0 -6 9 -16 21 -24 18 -13 27
-13 72 -1 72 19 124 19 174 -1 51 -21 64 -39 96 -141 25 -81 35 -151 42 -297
2 -45 7 -99 10 -119 4 -21 9 -226 11 -455 3 -230 5 -438 5 -463 2 -113 -4
-257 -11 -276 -5 -11 -11 -37 -14 -58 -12 -72 -90 -193 -144 -223 -52 -29 -92
-33 -384 -43 -18 0 -6 -49 15 -62 56 -36 134 -48 313 -50 l132 -2 51 33 c65
42 108 92 147 172 70 142 77 224 69 777 -4 246 -8 467 -9 492 -9 138 -22 286
-32 350 -2 14 -9 72 -14 130 -17 172 -68 287 -144 327 -49 26 -184 26 -283 -1z"/>
<path d="M4248 3720 c-15 -11 -32 -36 -38 -55 -6 -19 -16 -35 -21 -35 -5 0 -9
-6 -9 -13 0 -16 -180 -202 -235 -242 -58 -43 -135 -120 -135 -137 0 -23 82
-107 121 -122 45 -19 67 -6 106 62 23 40 104 151 138 188 5 6 20 23 33 38 25
30 168 126 187 126 6 0 20 9 30 20 15 17 16 23 5 50 -14 34 -102 130 -118 130
-6 0 -17 2 -24 5 -8 3 -26 -3 -40 -15z"/>
<path d="M367 3689 c-102 -16 -182 -74 -252 -183 -95 -149 -110 -256 -110
-801 0 -360 3 -441 21 -580 3 -22 7 -56 9 -75 26 -245 79 -448 134 -506 85
-92 179 -146 236 -138 11 2 44 6 72 9 29 3 64 10 77 17 14 6 69 23 122 37 107
29 136 51 110 86 -13 18 -15 18 -93 -3 -44 -12 -96 -22 -114 -22 -50 0 -121
22 -150 45 -44 36 -117 139 -139 195 -11 30 -30 74 -40 97 -11 24 -20 49 -20
56 0 8 -3 17 -7 21 -5 4 -8 11 -9 14 0 10 -15 114 -19 132 -17 97 -49 409 -48
480 0 19 3 69 7 110 4 41 9 125 11 185 2 61 8 133 13 160 5 28 10 57 10 65 2
45 27 165 49 235 58 186 101 237 230 271 81 21 137 12 250 -42 99 -46 115 -48
132 -17 12 24 7 32 -53 72 -64 42 -139 72 -196 77 -108 9 -188 11 -233 3z"/>
<path d="M3467 3296 c-48 -24 -114 -67 -147 -96 -74 -65 -123 -101 -175 -129
-35 -19 -41 -19 -60 -6 -33 24 -116 67 -139 71 -12 2 -43 8 -69 13 -49 9 -399
7 -472 -3 -187 -25 -239 -38 -319 -79 -56 -28 -62 -29 -105 -18 -25 7 -92 34
-149 62 -115 54 -147 60 -157 28 -12 -35 25 -62 227 -168 75 -39 91 -61 80
-110 -12 -55 -28 -57 -117 -21 -162 66 -178 69 -190 29 -9 -28 11 -43 129 -93
59 -24 119 -52 133 -62 22 -14 24 -18 10 -25 -8 -5 -44 -12 -79 -14 -35 -3
-79 -8 -98 -11 -19 -2 -62 -7 -95 -9 -33 -3 -80 -8 -105 -12 -64 -9 -87 -11
-250 -17 -80 -4 -158 -8 -175 -10 -16 -2 -55 -7 -85 -10 -75 -9 -126 -35 -122
-61 5 -24 22 -37 41 -30 8 3 64 8 125 11 61 3 122 7 136 10 14 3 171 7 350 10
179 3 336 6 349 7 34 3 37 -18 4 -34 -60 -30 -236 -144 -240 -157 -7 -16 15
-42 36 -42 9 0 65 20 125 45 87 35 113 42 124 33 34 -28 50 -129 27 -164 -8
-13 -39 -41 -68 -63 -28 -21 -68 -53 -87 -71 -19 -17 -48 -39 -65 -47 -55 -29
-72 -73 -35 -93 17 -9 29 -6 68 19 26 17 65 40 87 52 22 12 70 42 107 66 l67
44 54 -16 c76 -22 91 -24 192 -32 200 -16 458 -6 577 21 35 8 80 17 100 20 20
3 61 18 91 32 l53 26 70 -42 c38 -24 87 -51 109 -61 22 -10 72 -35 110 -57 39
-21 75 -39 80 -39 20 -3 44 28 37 47 -7 20 -107 84 -331 216 -44 25 -48 46
-22 107 17 39 25 47 46 47 15 0 34 -4 43 -9 44 -23 159 -30 205 -12 47 19 26
61 -34 68 -41 4 -137 36 -174 58 -40 23 -70 64 -57 77 5 5 28 11 51 13 68 5
143 16 206 30 33 8 84 16 113 19 29 3 56 7 60 10 4 2 48 7 98 10 50 4 102 8
115 11 60 9 202 23 303 29 34 2 54 9 63 22 26 36 9 67 -38 66 -189 -5 -342
-14 -429 -27 -14 -2 -74 -6 -135 -10 -60 -4 -117 -8 -125 -10 -8 -1 -40 -6
-70 -10 -30 -4 -62 -9 -70 -10 -62 -12 -140 -15 -140 -7 0 11 44 36 100 57
104 38 161 69 167 93 10 40 -16 56 -68 42 -24 -7 -51 -13 -60 -15 -9 -2 -49
-15 -88 -28 -40 -14 -79 -23 -86 -21 -7 3 -16 17 -20 32 -3 15 -8 35 -11 44
-8 29 110 135 269 242 150 100 168 121 135 154 -16 16 -11 17 -111 -32z m-646
-282 c77 -16 127 -42 176 -93 50 -52 91 -115 97 -151 3 -19 10 -51 14 -70 15
-63 5 -219 -20 -314 -27 -106 -40 -118 -150 -146 -156 -41 -264 -48 -554 -37
-161 6 -200 13 -221 39 -10 12 -25 82 -38 181 -2 15 -6 31 -9 35 -8 14 -20
158 -20 242 1 91 28 189 62 222 39 39 162 89 230 95 37 3 69 7 71 9 12 11 297
2 362 -12z"/>
<path d="M3730 2102 c-69 -65 -73 -89 -22 -116 35 -18 211 -200 307 -319 36
-44 87 -138 104 -190 7 -21 24 -45 37 -54 24 -15 27 -14 88 27 71 48 100 87
91 122 -7 24 -24 41 -115 111 -76 58 -107 89 -181 184 -50 64 -166 222 -199
273 -3 4 -15 10 -27 14 -17 5 -34 -5 -83 -52z"/>
<path d="M1498 2085 c-2 -1 -30 -5 -62 -9 -70 -7 -87 -18 -135 -85 -25 -36
-29 -77 -18 -206 9 -104 -43 -199 -137 -249 l-36 -19 -41 27 c-54 36 -75 86
-60 138 7 23 18 39 29 40 39 3 57 -4 82 -33 30 -36 58 -36 77 1 10 21 9 29 -7
55 -33 54 -78 77 -137 73 -103 -9 -183 -101 -183 -210 0 -64 24 -153 52 -187
11 -14 44 -42 75 -63 117 -80 208 -76 300 12 38 36 82 108 89 144 2 14 9 37
14 51 5 14 10 56 10 93 2 107 16 162 53 203 60 65 112 53 121 -28 5 -45 -1
-54 -57 -82 -40 -20 -47 -53 -15 -68 19 -8 34 -5 82 18 102 50 131 90 120 167
-8 56 -33 122 -45 122 -5 0 -9 6 -9 14 0 22 -62 63 -112 73 -26 6 -49 9 -50 8z"/>
<path d="M3490 1968 c-56 -14 -141 -61 -158 -86 -10 -16 -17 -57 -20 -125 l-4
-102 49 -50 c78 -81 91 -88 213 -100 151 -15 155 -17 185 -88 14 -33 14 -40 1
-66 -9 -16 -24 -31 -35 -34 -32 -8 -79 28 -90 70 -23 83 -73 112 -89 51 -14
-52 -5 -115 24 -169 15 -27 31 -49 35 -49 5 0 28 -14 52 -31 47 -33 116 -42
167 -21 14 5 28 9 31 8 4 0 29 15 57 34 75 51 106 143 80 240 -23 82 -83 128
-238 182 -190 66 -269 124 -253 187 16 69 86 82 139 25 19 -19 34 -46 34 -59
0 -12 9 -33 19 -46 18 -22 21 -23 37 -7 18 17 22 63 10 115 -7 33 -68 96 -102
107 -50 16 -112 22 -144 14z"/>
<path d="M1798 1893 c-21 -5 -23 -22 -7 -56 9 -20 7 -33 -15 -73 -14 -27 -26
-54 -26 -60 0 -5 -19 -41 -41 -79 -23 -37 -46 -84 -51 -104 -14 -49 -103 -237
-117 -246 -19 -11 -60 -112 -55 -132 3 -10 34 -35 70 -56 62 -37 66 -38 89
-23 24 16 47 48 44 63 -1 4 0 15 3 23 4 8 14 40 23 70 20 69 58 152 79 172 13
14 22 14 73 1 68 -16 166 -18 196 -2 26 14 73 64 91 99 22 40 29 120 14 162
-21 61 -81 122 -168 173 -80 46 -151 76 -174 74 -6 -1 -19 -3 -28 -6z m218
-185 c51 -35 70 -87 52 -139 -15 -43 -64 -57 -150 -43 -51 9 -56 31 -22 102
53 112 63 119 120 80z"/>
<path d="M3175 1841 c-57 -20 -115 -52 -123 -68 -5 -10 -8 -33 -6 -51 4 -45
-19 -105 -56 -150 -16 -20 -30 -42 -30 -49 0 -7 -5 -13 -10 -13 -19 0 2 137
26 175 26 40 0 88 -41 76 -5 -1 -32 -5 -60 -7 -86 -9 -126 -49 -98 -100 8 -16
17 -54 20 -84 2 -30 8 -84 14 -120 5 -36 11 -78 13 -95 3 -16 8 -79 11 -140 4
-60 8 -126 10 -145 2 -19 4 -49 4 -66 1 -18 9 -42 19 -54 18 -22 21 -22 88
-10 129 23 150 42 98 90 -30 29 -63 101 -66 144 -1 17 -6 39 -11 49 -17 36
-17 67 0 106 23 54 36 56 59 13 10 -21 38 -71 62 -112 23 -41 47 -93 53 -115
13 -49 45 -85 75 -85 41 0 179 32 186 44 16 24 6 45 -29 63 -44 23 -129 129
-207 258 -74 123 -79 135 -66 165 18 42 61 113 93 154 32 42 45 99 26 122 -12
15 -23 16 -54 5z"/>
<path d="M2266 1705 c-20 -10 -21 -19 -21 -205 -1 -107 -7 -231 -13 -275 -7
-44 -15 -91 -17 -105 -2 -14 -10 -45 -18 -70 -25 -74 -29 -116 -11 -130 9 -8
52 -14 112 -15 110 -3 222 -13 268 -25 46 -11 92 13 100 54 13 70 11 157 -3
172 -21 20 -26 19 -82 -30 -29 -24 -59 -42 -69 -42 -55 6 -119 20 -130 29 -16
13 -8 163 9 184 15 17 74 27 94 16 26 -15 62 -4 74 23 26 59 3 87 -74 91 -90
3 -88 2 -81 89 4 42 8 81 9 87 4 23 36 37 92 42 60 5 85 -7 85 -40 0 -8 11
-20 24 -27 40 -17 61 12 61 84 0 46 -5 62 -23 80 -21 22 -29 23 -194 23 -97 0
-181 -4 -192 -10z"/>
<path d="M1308 987 c-68 -59 -83 -146 -39 -222 20 -35 107 -82 166 -91 22 -3
51 -7 65 -10 21 -3 175 -16 205 -17 11 0 54 7 145 23 102 18 250 -2 298 -41
56 -45 66 -91 27 -133 -28 -30 -37 -32 -70 -10 -32 21 -32 37 0 58 29 19 23
46 -10 46 -40 0 -75 -37 -75 -78 1 -65 52 -106 124 -99 45 5 58 12 102 56 46
46 49 135 6 181 -21 22 -95 56 -142 66 -63 12 -243 12 -305 -1 -57 -12 -186
-12 -267 0 -21 3 -55 7 -75 10 -84 12 -153 74 -153 137 0 34 44 84 82 93 33 8
82 -18 97 -52 6 -13 11 -26 11 -28 0 -11 -24 -3 -47 15 -29 23 -43 18 -43 -15
0 -36 10 -55 39 -69 45 -22 99 4 110 55 9 40 -5 73 -46 109 -44 40 -54 44
-113 46 -50 2 -60 -1 -92 -29z"/>
<path d="M3513 990 c-63 -28 -90 -111 -52 -156 24 -29 69 -43 101 -32 27 9 48
34 48 56 0 18 -31 22 -53 7 -41 -28 -67 34 -29 68 25 22 60 21 99 -3 57 -35
72 -85 42 -146 -15 -33 -30 -46 -67 -62 -109 -46 -310 -48 -547 -6 -54 9 -116
10 -121 2 -3 -5 -9 -6 -13 -4 -11 7 -83 -37 -103 -64 -35 -48 -25 -149 20
-191 27 -24 89 -42 126 -35 44 9 93 54 100 94 5 28 1 39 -23 63 -33 33 -80 39
-106 13 -32 -32 -6 -58 43 -43 8 2 19 -4 25 -13 16 -24 -17 -58 -57 -58 -24 0
-36 8 -53 35 -13 19 -23 39 -23 45 0 20 63 79 96 90 31 11 114 8 179 -7 72
-15 194 -19 295 -9 115 11 144 18 201 48 70 37 103 89 103 163 0 62 -21 95
-80 130 -56 33 -101 37 -151 15z"/>
<path d="M2447 716 c-9 -14 -17 -32 -17 -39 0 -23 26 -38 53 -32 32 8 51 -19
35 -50 -21 -40 -44 -44 -78 -15 -29 25 -37 25 -50 0 -14 -26 10 -70 50 -94 40
-23 58 -20 87 14 29 35 37 37 65 10 15 -13 36 -20 64 -20 36 0 46 5 63 29 32
44 5 84 -40 60 -16 -8 -26 -7 -45 6 -28 18 -31 47 -8 66 14 11 18 11 29 -4 17
-23 34 -21 44 5 8 22 -4 77 -17 79 -37 7 -63 3 -94 -15 -35 -20 -38 -20 -50
-4 -7 10 -27 20 -44 24 -25 5 -33 1 -47 -20z"/>
</g>
</svg>
